<svg width="20" height="18" fill="none" xmlns="http://www.w3.org/2000/svg"><path d="M18.413 1.741a5.378 5.378 0 00-4-1.741 5.032 5.032 0 00-3.143 1.085A6.43 6.43 0 0010 2.41a6.426 6.426 0 00-1.27-1.326A5.03 5.03 0 005.586 0a5.378 5.378 0 00-4 1.741C.563 2.851 0 4.367 0 6.011c0 1.691.63 3.24 1.984 4.872 1.21 1.461 2.95 2.944 4.965 4.661.688.586 1.468 1.251 2.278 1.96a1.173 1.173 0 001.546 0c.81-.709 1.59-1.374 2.278-1.96 2.015-1.717 3.755-3.2 4.966-4.66C19.37 9.25 20 7.701 20 6.01c0-1.643-.564-3.159-1.587-4.269z" fill="url(#paint0_linear)"/><defs><linearGradient id="paint0_linear" x1="2.5" y1="14.457" x2="14.786" y2="1.903" gradientUnits="userSpaceOnUse"><stop stop-color="#FF8A9D"/><stop offset="1" stop-color="#FFC390"/></linearGradient></defs></svg>