<svg width="22" height="20" fill="none" xmlns="http://www.w3.org/2000/svg"><path d="M19.413 2.741a5.378 5.378 0 00-4-1.741 5.032 5.032 0 00-3.143 1.085A6.43 6.43 0 0011 3.41a6.427 6.427 0 00-1.27-1.326A5.03 5.03 0 006.586 1a5.378 5.378 0 00-4 1.741C1.563 3.851 1 5.367 1 7.011c0 1.691.63 3.24 1.984 4.872 1.21 1.461 2.95 2.944 4.965 4.661.688.586 1.468 1.251 2.278 1.96a1.173 1.173 0 001.546 0c.81-.709 1.59-1.374 2.278-1.96 2.015-1.717 3.755-3.2 4.966-4.66C20.37 10.25 21 8.701 21 7.01c0-1.643-.564-3.159-1.587-4.269z" stroke="#FF8A9D" stroke-width="2"/></svg>