<svg  version="1.1" xmlns="http://www.w3.org/2000/svg" xmlns:xlink="http://www.w3.org/1999/xlink">
<defs>
<symbol id="icon-icon-heart-full" viewBox="0 0 36 32">
<path d="M32.734 3.095c-1.753-1.906-4.259-3.095-7.043-3.095-0.024 0-0.048 0-0.072 0l0.004-0c-0.011-0-0.025-0-0.039-0-2.105 0-4.039 0.727-5.567 1.943l0.018-0.014c-0.864 0.679-1.609 1.455-2.235 2.322l-0.023 0.034c-0.649-0.901-1.394-1.678-2.233-2.339l-0.024-0.019c-1.509-1.201-3.442-1.927-5.546-1.927-0.015 0-0.031 0-0.046 0h0.002c-0.020-0-0.044-0-0.068-0-2.784 0-5.29 1.19-7.037 3.089l-0.006 0.007c-1.819 1.973-2.82 4.668-2.82 7.591 0 3.006 1.12 5.76 3.527 8.661 2.151 2.597 5.244 5.234 8.827 8.286 1.223 1.042 2.61 2.224 4.050 3.484 0.365 0.321 0.847 0.517 1.374 0.517s1.009-0.196 1.377-0.519l-0.002 0.002c1.44-1.26 2.827-2.443 4.050-3.484 3.582-3.052 6.676-5.689 8.828-8.284 2.405-2.905 3.525-5.659 3.525-8.665 0-2.921-1.003-5.616-2.821-7.589z"></path>
</symbol>
<symbol id="icon-icon-heart" viewBox="0 0 35 32">
<path fill="none" stroke="#ff8a9d" style="stroke: var(--color1, #ff8a9d)" stroke-linejoin="miter" stroke-linecap="butt" stroke-miterlimit="4" stroke-width="3.2" d="M31.061 4.386c-1.578-1.715-3.833-2.786-6.339-2.786-0.021 0-0.043 0-0.064 0l0.003-0c-0.010-0-0.023-0-0.035-0-1.894 0-3.635 0.654-5.010 1.749l0.016-0.013c-0.778 0.611-1.448 1.309-2.011 2.090l-0.021 0.030c-0.584-0.811-1.254-1.51-2.010-2.105l-0.022-0.017c-1.358-1.081-3.098-1.734-4.991-1.734-0.014 0-0.028 0-0.042 0h0.002c-0.018-0-0.040-0-0.061-0-2.505 0-4.761 1.071-6.333 2.78l-0.006 0.006c-1.637 1.776-2.538 4.202-2.538 6.832 0 2.706 1.008 5.184 3.174 7.795 1.936 2.338 4.72 4.71 7.944 7.458 1.101 0.938 2.349 2.002 3.645 3.136 0.328 0.289 0.762 0.465 1.237 0.465s0.908-0.176 1.239-0.467l-0.002 0.002c1.296-1.134 2.544-2.198 3.645-3.136 3.224-2.747 6.008-5.12 7.946-7.456 2.165-2.614 3.173-5.093 3.173-7.798 0-2.629-0.902-5.054-2.539-6.83z"></path>
</symbol>
<symbol id="icon-icon-star" viewBox="0 0 32 32">
<path d="M16 6.897l3.113 6.423 7.073 0.976-5.148 4.947 1.256 7.027-6.295-3.365-6.295 3.367 1.256-7.027-5.148-4.947 7.073-0.977 3.113-6.423zM16 0.783l-4.891 10.091-11.109 1.535 8.085 7.771-1.973 11.039 9.888-5.289 9.888 5.288-1.973-11.039 8.085-7.769-11.109-1.533-4.891-10.092z"></path>
</symbol>
</defs>
</svg>
