<svg aria-hidden="true" style="position: absolute; width: 0; height: 0; overflow: hidden;" version="1.1"
    xmlns="http://www.w3.org/2000/svg"
    xmlns:xlink="http://www.w3.org/1999/xlink">
    <defs>
        <symbol id="address-icon" viewBox="0 0 32 32">
            <path fill="#53535c" style="fill: var(--color1, #53535c)" d="M16 32c-0.213 0-0.41-0.108-0.525-0.287l-2.9-4.503c-2.882-0.736-5.488-2.416-7.361-4.751-1.956-2.439-3.033-5.507-3.033-8.64 0-3.691 1.438-7.162 4.048-9.772s6.080-4.048 9.772-4.048c3.691 0 7.162 1.437 9.772 4.048s4.048 6.080 4.048 9.772c0 3.132-1.077 6.201-3.033 8.64-1.873 2.335-4.479 4.015-7.361 4.752l-2.9 4.503c-0.115 0.179-0.313 0.287-0.525 0.287zM16 1.25c-6.931 0-12.569 5.639-12.569 12.569 0 5.863 3.98 10.894 9.678 12.235 0.158 0.037 0.295 0.134 0.382 0.27l2.509 3.896 2.509-3.896c0.088-0.136 0.225-0.233 0.382-0.27 5.698-1.341 9.678-6.372 9.678-12.235 0-6.931-5.638-12.569-12.569-12.569z"></path>
            <path fill="#ff8a9d" style="fill: var(--color2, #ff8a9d)" d="M16 22.839c4.982 0 9.020-4.038 9.020-9.020s-4.038-9.020-9.020-9.020c-4.982 0-9.020 4.038-9.020 9.020s4.038 9.020 9.020 9.020z"></path>
            <path fill="#53535c" style="fill: var(--color1, #53535c)" d="M19.793 9.872h-1.415v-0.102c0-1.318-1.069-2.39-2.383-2.39s-2.384 1.072-2.384 2.39v0.102h-1.403c-0.345 0-0.625 0.28-0.625 0.625v6.283c0 1.079 0.878 1.957 1.957 1.957h4.922c1.079 0 1.957-0.878 1.957-1.957v-6.283c0-0.345-0.28-0.625-0.625-0.625zM14.86 9.77c0-0.629 0.508-1.14 1.134-1.14s1.133 0.512 1.133 1.14v0.102h-2.267v-0.102zM19.168 16.78c0 0.39-0.317 0.707-0.707 0.707h-4.922c-0.39 0-0.707-0.317-0.707-0.707v-5.658h0.778v1.094c0 0.345 0.28 0.625 0.625 0.625s0.625-0.28 0.625-0.625v-1.094h2.267v1.094c0 0.345 0.28 0.625 0.625 0.625s0.625-0.28 0.625-0.625v-1.094h0.79v5.658z"></path>
        </symbol>
        <symbol id="change-password-icon" viewBox="0 0 32 32">
            <path fill="#53535c" style="fill: var(--color1, #53535c)" d="M28.757 17.674c-0.095-1.782-0.851-3.456-2.126-4.712-0.198-0.195-0.406-0.377-0.622-0.545v-2.415c0-5.515-4.49-10.001-10.008-10.001s-10.008 4.487-10.008 10.001v2.415c-0.216 0.168-0.424 0.35-0.622 0.546-1.276 1.257-2.031 2.93-2.126 4.712-0.095 1.775 0.358 3.317 1.468 4.999 1.089 1.651 4.925 5.279 7.951 8.032 0.918 0.835 2.107 1.295 3.348 1.295h0.002c1.242-0 2.431-0.461 3.349-1.297 3.013-2.744 6.834-6.365 7.929-8.030 0.747-1.135 1.588-2.73 1.467-4.999zM7.242 10.001c0-4.825 3.929-8.751 8.758-8.751s8.758 3.926 8.758 8.751v1.641c-0.554-0.265-1.14-0.453-1.745-0.558v-1.083c0-3.865-3.146-7.009-7.013-7.009s-7.014 3.144-7.014 7.009v1.082c-0.605 0.105-1.191 0.293-1.744 0.558v-1.64h0zM21.764 10.987c-2.665 0.044-4.842 1.633-5.753 2.414-0.886-0.789-3.005-2.372-5.774-2.414v-0.986c0-3.176 2.585-5.759 5.763-5.759s5.764 2.583 5.764 5.759v0.986zM26.246 21.986c-0.799 1.214-3.543 3.982-7.727 7.793-1.429 1.302-3.585 1.303-5.015 0.002-4.203-3.823-6.954-6.591-7.748-7.795-0.953-1.445-1.342-2.754-1.263-4.244 0.163-3.035 2.689-5.505 5.633-5.505 3.113 0 5.394 2.422 5.416 2.445 0.116 0.126 0.279 0.199 0.45 0.201 0.169 0.002 0.336-0.065 0.456-0.187 0.024-0.025 2.448-2.459 5.428-2.459 2.944 0 5.47 2.47 5.633 5.505 0.081 1.507-0.297 2.776-1.263 4.245z"></path>
            <path fill="#6368e5" style="fill: var(--color3, #6368e5)" d="M18.995 20.091c0-1.654-1.341-2.994-2.994-2.994s-2.994 1.341-2.994 2.994c0 1.060 0.551 1.992 1.382 2.524l-0.71 3.232h4.645l-0.71-3.232c0.831-0.532 1.382-1.464 1.382-2.524z"></path>
        </symbol>
        <symbol id="contacts-icon" viewBox="0 0 32 32">
            <path fill="#53535c" style="fill: var(--color1, #53535c)" d="M29.706 1.78h-27.412c-1.265 0-2.294 1.031-2.294 2.299v24.239c0 1.049 0.85 1.902 1.895 1.902h28.21c1.045 0 1.895-0.853 1.895-1.902v-24.239c0-1.268-1.029-2.299-2.294-2.299zM1.25 4.079c0-0.578 0.468-1.049 1.044-1.049h27.412c0.576 0 1.044 0.471 1.044 1.049v3.715h-29.5v-3.715zM30.75 28.318c0 0.36-0.289 0.652-0.645 0.652h-28.21c-0.356 0-0.645-0.293-0.645-0.652v-19.274h29.5v19.274z"></path>
            <path fill="#53535c" style="fill: var(--color1, #53535c)" d="M20.561 4.787h-0.84c-0.345 0-0.625 0.28-0.625 0.625s0.28 0.625 0.625 0.625h0.84c0.345 0 0.625-0.28 0.625-0.625s-0.28-0.625-0.625-0.625z"></path>
            <path fill="#53535c" style="fill: var(--color1, #53535c)" d="M24.444 4.787h-0.84c-0.345 0-0.625 0.28-0.625 0.625s0.28 0.625 0.625 0.625h0.84c0.345 0 0.625-0.28 0.625-0.625s-0.28-0.625-0.625-0.625z"></path>
            <path fill="#53535c" style="fill: var(--color1, #53535c)" d="M28.327 4.787h-0.84c-0.345 0-0.625 0.28-0.625 0.625s0.28 0.625 0.625 0.625h0.84c0.345 0 0.625-0.28 0.625-0.625s-0.28-0.625-0.625-0.625z"></path>
            <path fill="#53535c" style="fill: var(--color1, #53535c)" d="M10.514 4.787h-6.059c-0.345 0-0.625 0.28-0.625 0.625s0.28 0.625 0.625 0.625h6.059c0.345 0 0.625-0.28 0.625-0.625s-0.28-0.625-0.625-0.625z"></path>
            <path fill="#ffc390" style="fill: var(--color4, #ffc390)" d="M16 27.088c4.432 0 8.024-3.593 8.024-8.024s-3.593-8.024-8.024-8.024-8.024 3.593-8.024 8.024c0 4.432 3.593 8.024 8.024 8.024z"></path>
            <path fill="#53535c" style="fill: var(--color1, #53535c)" d="M18.499 19.013c0.45-0.554 0.721-1.26 0.721-2.028 0-1.775-1.444-3.22-3.22-3.22s-3.22 1.445-3.22 3.22c0 0.768 0.27 1.474 0.72 2.028-0.88 0.478-1.475 1.412-1.475 2.469v2.142c0 0.345 0.28 0.625 0.625 0.625h6.699c0.345 0 0.625-0.28 0.625-0.625v-2.142c0-1.055-0.596-1.99-1.475-2.469zM16 15.015c1.086 0 1.97 0.884 1.97 1.97s-0.884 1.97-1.97 1.97-1.97-0.884-1.97-1.97c0-1.086 0.884-1.97 1.97-1.97zM18.725 22.998h-5.449v-1.517c0-0.806 0.624-1.484 1.424-1.551 0.398 0.176 0.838 0.274 1.3 0.274s0.903-0.098 1.3-0.274c0.799 0.067 1.424 0.746 1.424 1.551v1.517h-0z"></path>
        </symbol>
        <symbol id="create-ad-icon" viewBox="0 0 32 32">
            <path fill="#53535c" style="fill: var(--color1, #53535c)" d="M31.375 19.507c-0.345 0-0.625 0.28-0.625 0.625v3.318c0 0.485-0.395 0.88-0.88 0.88h-27.741c-0.485 0-0.88-0.395-0.88-0.88v-1.628c0.268 0.122 0.566 0.191 0.88 0.191h20.682c0.345 0 0.625-0.28 0.625-0.625s-0.28-0.625-0.625-0.625h-20.682c-0.485 0-0.88-0.395-0.88-0.88v-11.334c0-0.485 0.395-0.88 0.88-0.88h20.682c0.345 0 0.625-0.28 0.625-0.625s-0.28-0.625-0.625-0.625h-20.682c-1.174 0-2.13 0.955-2.13 2.13v14.9c0 1.174 0.955 2.13 2.13 2.13h27.741c1.174 0 2.13-0.955 2.13-2.13v-3.318c0-0.345-0.28-0.625-0.625-0.625z"></path>
            <path fill="#53535c" style="fill: var(--color1, #53535c)" d="M7.201 11.502c-0.114-0.277-0.381-0.456-0.681-0.456-0 0-0 0-0.001 0-0.3 0-0.567 0.18-0.681 0.458-0.002 0.005-0.004 0.009-0.006 0.014l-1.85 4.856c-0.123 0.323 0.039 0.684 0.362 0.806s0.684-0.039 0.806-0.362l0.307-0.807h2.109l0.304 0.805c0.094 0.25 0.332 0.404 0.585 0.404 0.073 0 0.148-0.013 0.221-0.040 0.323-0.122 0.486-0.483 0.364-0.805l-1.833-4.857c-0.002-0.006-0.004-0.011-0.007-0.017zM5.934 14.762l0.583-1.531 0.578 1.531h-1.161z"></path>
            <path fill="#53535c" style="fill: var(--color1, #53535c)" d="M10.187 11.119c-0.166 0-0.325 0.066-0.442 0.184s-0.183 0.277-0.183 0.443c0 0 0.004 1.839 0.004 2.384 0 0.657 0.006 2.38 0.006 2.398 0.001 0.166 0.067 0.324 0.185 0.441s0.275 0.181 0.44 0.181h0.002c0.041-0 1.006-0.004 1.392-0.011 1.451-0.025 2.505-1.289 2.505-3.004 0-1.803-1.027-3.015-2.555-3.015h-1.354zM12.846 14.134c0 0.862-0.395 1.739-1.277 1.755-0.173 0.003-0.474 0.005-0.75 0.007-0.002-0.564-0.004-1.366-0.004-1.767 0-0.338-0.001-1.173-0.002-1.76h0.728c1.211 0 1.305 1.351 1.305 1.765z"></path>
            <path fill="#53535c" style="fill: var(--color1, #53535c)" d="M15.365 11.119c-0.166 0-0.325 0.066-0.442 0.184s-0.183 0.277-0.183 0.443c0 0 0.003 1.839 0.003 2.384 0 0.657 0.006 2.38 0.006 2.398 0.001 0.166 0.067 0.324 0.185 0.441s0.275 0.181 0.44 0.181h0.002c0.041-0 1.006-0.004 1.392-0.011 1.451-0.025 2.505-1.289 2.505-3.004 0-1.803-1.027-3.015-2.555-3.015h-1.354zM18.024 14.134c0 0.862-0.395 1.739-1.277 1.755-0.173 0.003-0.474 0.005-0.75 0.007-0.002-0.564-0.004-1.366-0.004-1.767 0-0.338-0.001-1.173-0.002-1.76h0.728c1.211 0 1.305 1.351 1.305 1.765z"></path>
            <path fill="#ffc390" style="fill: var(--color4, #ffc390)" d="M30.495 22.013h-7.872v-15.588h7.872c0.831 0 1.505 0.674 1.505 1.505v12.579c0 0.831-0.674 1.505-1.504 1.505z"></path>
            <path fill="#53535c" style="fill: var(--color1, #53535c)" d="M29.056 13.695h-0.938v-0.938c0-0.345-0.28-0.625-0.625-0.625s-0.625 0.28-0.625 0.625v0.938h-0.938c-0.345 0-0.625 0.28-0.625 0.625s0.28 0.625 0.625 0.625h0.938v0.938c0 0.345 0.28 0.625 0.625 0.625s0.625-0.28 0.625-0.625v-0.938h0.938c0.345 0 0.625-0.28 0.625-0.625s-0.28-0.625-0.625-0.625z"></path>
        </symbol>
        <symbol id="favorites-icon" viewBox="0 0 32 32">
            <path fill="#b884f3" style="fill: var(--color5, #b884f3)" d="M21.036 14.599c-1.766 0-3.151 1.969-3.151 1.969s-1.307-1.969-3.152-1.969c-1.795 0-3.26 1.48-3.356 3.272-0.054 1.012 0.272 1.783 0.732 2.481 0.919 1.394 5.781 4.605 5.781 4.605s4.844-3.198 5.769-4.605c0.461-0.701 0.786-1.468 0.732-2.481-0.096-1.792-1.561-3.272-3.356-3.272z"></path>
            <path fill="#53535c" style="fill: var(--color1, #53535c)" d="M26.853 5.935h-3.302v-0.344c0-3.083-2.523-5.591-5.625-5.591-0.712 0-1.394 0.132-2.022 0.374-0.628-0.241-1.31-0.374-2.022-0.374-3.101 0-5.625 2.508-5.625 5.591v0.344h-3.111c-0.345 0-0.625 0.28-0.625 0.625v24.815c0 0.345 0.28 0.625 0.625 0.625h21.706c0.345 0 0.625-0.28 0.625-0.625v-24.815c0-0.345-0.28-0.625-0.625-0.625zM17.927 1.25c2.412 0 4.375 1.947 4.375 4.341v0.344h-2.794v-0.344c0-1.736-0.8-3.29-2.053-4.316 0.155-0.017 0.313-0.025 0.472-0.025zM15.905 1.742c1.397 0.726 2.353 2.179 2.353 3.849v0.344h-4.705v-0.344c0-1.67 0.956-3.123 2.353-3.849zM9.508 5.591c0-2.394 1.962-4.341 4.375-4.341 0.16 0 0.317 0.008 0.472 0.025-1.253 1.026-2.053 2.58-2.053 4.316v0.344h-2.794v-0.344zM5.772 7.185h1.861v23.565h-1.861v-23.565zM26.228 30.75h-17.345v-23.565h3.419v2.787h-0.066c-0.345 0-0.625 0.28-0.625 0.625s0.28 0.625 0.625 0.625h1.383c0.345 0 0.625-0.28 0.625-0.625s-0.28-0.625-0.625-0.625h-0.066v-2.787h8.749v2.787h-0.066c-0.345 0-0.625 0.28-0.625 0.625s0.28 0.625 0.625 0.625h1.383c0.345 0 0.625-0.28 0.625-0.625s-0.28-0.625-0.625-0.625h-0.066v-2.787h2.677v23.565z"></path>
        </symbol>
    </defs>
</svg>
