<svg aria-hidden="true" style="position: absolute; width: 0; height: 0; overflow: hidden;" version="1.1" xmlns="http://www.w3.org/2000/svg" xmlns:xlink="http://www.w3.org/1999/xlink">
<defs>
<symbol id="icon-cart" viewBox="0 0 33 32">
<path fill="#fff" style="fill: var(--color1, #fff)" d="M16.648 32c8.837 0 16-7.163 16-16s-7.163-16-16-16c-8.837 0-16 7.163-16 16s7.163 16 16 16zM15.911 22.516c0 1.114-0.903 2.018-2.018 2.018s-2.018-0.903-2.018-2.017c0-1.114 0.903-2.017 2.018-2.017s2.018 0.903 2.018 2.017zM19.781 20.498c1.114 0 2.017 0.903 2.017 2.018s-0.903 2.018-2.017 2.018c-1.114 0-2.018-0.903-2.018-2.018s0.903-2.017 2.018-2.017zM12.699 18.44h10.52c0.341 0 0.618 0.277 0.618 0.618s-0.276 0.618-0.618 0.618h-11.035c-0.305 0.004-0.567-0.214-0.618-0.515l-1.77-10.458h-1.853c-0.341 0-0.618-0.277-0.618-0.618s0.277-0.618 0.618-0.618h2.367c0.305-0.004 0.567 0.214 0.618 0.515l0.494 2.841h11.776c0.078-0 0.156 0.014 0.228 0.043 0.317 0.125 0.473 0.484 0.348 0.801l-2.059 5.188c-0.093 0.237-0.322 0.392-0.576 0.391h-8.647l0.206 1.194z"></path>
</symbol>
</defs>
</svg>
