<!-- Generated by IcoMoon.io -->
<svg version="1.1" xmlns="http://www.w3.org/2000/svg" width="1058" height="1024" viewBox="0 0 1058 1024">
<title></title>
<g id="icomoon-ignore">
</g>
<path fill="#fff" d="M532.733 1024c282.771 0 512-229.229 512-512s-229.229-512-512-512c-282.769 0-511.999 229.23-511.999 512s229.23 512 511.999 512zM509.146 720.507c0 35.656-28.904 64.56-64.56 64.56s-64.563-28.904-64.563-64.56c0-35.656 28.908-64.56 64.563-64.56s64.56 28.904 64.56 64.56zM632.999 655.947c35.656 0 64.56 28.904 64.56 64.56s-28.904 64.563-64.56 64.563c-35.656 0-64.563-28.908-64.563-64.563s28.908-64.56 64.563-64.56zM406.374 590.066h336.64c10.916 0 19.763 8.851 19.763 19.763 0 10.916-8.847 19.763-19.763 19.763h-353.109c-9.745 0.137-18.138-6.854-19.763-16.469l-56.655-334.661h-59.291c-10.915 0-19.764-8.849-19.764-19.764s8.849-19.764 19.764-19.764h75.76c9.748-0.137 18.138 6.857 19.763 16.47l15.811 90.912h376.825c2.502-0.007 4.98 0.461 7.305 1.376 10.155 4.004 15.145 15.479 11.141 25.634l-65.877 166.014c-2.983 7.571-10.308 12.541-18.446 12.517h-276.692l6.588 38.209z"></path>
</svg>
