<!-- Generated by IcoMoon.io -->
<svg version="1.1" xmlns="http://www.w3.org/2000/svg" width="1024" height="1024" viewBox="0 0 1024 1024">
<title></title>
<g id="icomoon-ignore">
</g>
<path fill="#000" d="M21.423 848.94c-28.564 28.562-28.564 74.876 0 103.439s74.875 28.562 103.44 0l362.030-362.029 362.048 362.044c28.562 28.57 74.876 28.57 103.439 0 28.562-28.562 28.562-74.869 0-103.439l-362.047-362.045 362.047-362.047c28.562-28.564 28.562-74.876 0-103.44s-74.876-28.564-103.439 0l-362.048 362.047-362.030-362.031c-28.564-28.564-74.876-28.564-103.44 0s-28.564 74.875 0 103.44l362.030 362.030-362.030 362.030z"></path>
</svg>
