<!-- Generated by IcoMoon.io -->
<svg version="1.1" xmlns="http://www.w3.org/2000/svg" width="1024" height="1024" viewBox="0 0 1024 1024">
<title></title>
<g id="icomoon-ignore">
</g>
<path fill="#53535c" d="M512 1024c282.771 0 512-229.229 512-512s-229.229-512-512-512c-282.77 0-512 229.23-512 512s229.23 512 512 512zM624.971 307.2c39.54 0 75.909 15.832 102.41 44.578 26.194 28.409 40.619 67.222 40.619 109.288 0 43.305-16.131 82.944-50.777 124.744-30.993 37.396-75.53 75.353-127.102 119.299l-0.007 0.003-0.43 0.369c-17.517 14.93-37.338 31.823-57.9 49.804-5.468 4.789-12.5 7.431-19.784 7.431-7.287 0-14.316-2.642-19.794-7.438-20.716-18.111-40.666-35.116-58.272-50.121l-0.034-0.031c-51.582-43.957-96.126-81.92-127.118-119.313-34.644-41.803-50.781-81.442-50.781-124.744 0-42.069 14.426-80.882 40.613-109.292 26.504-28.746 62.876-44.578 102.416-44.578 29.553 0 56.62 9.344 80.445 27.77 12.025 9.299 22.924 20.683 32.526 33.961 9.605-13.281 20.5-24.661 32.522-33.961 23.828-18.426 50.896-27.77 80.449-27.77z"></path>
</svg>
