<svg aria-hidden="true" style="position: absolute; width: 0; height: 0; overflow: hidden;" version="1.1" xmlns="http://www.w3.org/2000/svg" xmlns:xlink="http://www.w3.org/1999/xlink">
<defs>
<symbol id="icon-likes" viewBox="0 0 32 32">
<path fill="#53535c" style="fill: var(--color1, #53535c)" d="M16 32c8.837 0 16-7.163 16-16s-7.163-16-16-16c-8.837 0-16 7.163-16 16s7.163 16 16 16zM19.53 9.6c1.236 0 2.372 0.495 3.2 1.393 0.819 0.888 1.269 2.101 1.269 3.415 0 1.353-0.504 2.592-1.587 3.898-0.969 1.169-2.36 2.355-3.972 3.728l-0 0-0.013 0.012c-0.547 0.467-1.167 0.994-1.809 1.556-0.171 0.15-0.391 0.232-0.618 0.232s-0.447-0.083-0.619-0.232c-0.647-0.566-1.271-1.097-1.821-1.566l-0.001-0.001c-1.612-1.374-3.004-2.56-3.972-3.729-1.083-1.306-1.587-2.545-1.587-3.898 0-1.315 0.451-2.528 1.269-3.415 0.828-0.898 1.965-1.393 3.2-1.393 0.924 0 1.769 0.292 2.514 0.868 0.376 0.291 0.716 0.646 1.016 1.061 0.3-0.415 0.641-0.771 1.016-1.061 0.745-0.576 1.59-0.868 2.514-0.868z"></path>
</symbol>
</defs>
</svg>
