<svg width="30" height="30" viewBox="0 0 30 30" fill="none" xmlns="http://www.w3.org/2000/svg">
<path fill-rule="evenodd" clip-rule="evenodd" d="M14.9998 30C23.284 30 29.9998 23.2843 29.9998 15C29.9998 6.71573 23.284 0 14.9998 0C6.71548 0 -0.000244141 6.71573 -0.000244141 15C-0.000244141 23.2843 6.71548 30 14.9998 30ZM18.3095 9C19.4679 9 20.5333 9.46383 21.3098 10.306C22.0771 11.1383 22.4998 12.2754 22.4998 13.5078C22.4998 14.7765 22.0271 15.9378 21.0121 17.1624C20.1042 18.258 18.7993 19.37 17.2884 20.6575L17.2882 20.6576L17.2756 20.6684C16.7625 21.1058 16.1818 21.6007 15.5794 22.1275C15.4192 22.2678 15.2132 22.3452 14.9998 22.3452C14.7862 22.3452 14.5803 22.2678 14.4199 22.1273C13.813 21.5967 13.2285 21.0985 12.7127 20.6589L12.7116 20.658C11.2004 19.3702 9.89546 18.258 8.98749 17.1625C7.97251 15.9378 7.49976 14.7765 7.49976 13.5079C7.49976 12.2754 7.92239 11.1383 8.6896 10.306C9.46608 9.46383 10.5316 9 11.69 9C12.5559 9 13.3488 9.27374 14.0468 9.81356C14.3992 10.086 14.7185 10.4195 14.9998 10.8085C15.2812 10.4194 15.6003 10.086 15.9526 9.81356C16.6507 9.27374 17.4436 9 18.3095 9Z" fill="white"/>
</svg>
