<svg aria-hidden="true" style="position: absolute; width: 0; height: 0; overflow: hidden;" version="1.1" xmlns="http://www.w3.org/2000/svg" xmlns:xlink="http://www.w3.org/1999/xlink">
<defs>
<symbol id="icon-smartphone" viewBox="0 0 32 32">
<path fill="#53535c" style="fill: var(--color1, #53535c)" d="M15.999 25.365c0.69 0 1.25-0.56 1.25-1.25s-0.56-1.25-1.25-1.25c-0.69 0-1.25 0.56-1.25 1.25s0.56 1.25 1.25 1.25z"></path>
<path fill="#53535c" style="fill: var(--color1, #53535c)" d="M19.486 7.28h-6.974c-0.391 0-0.709 0.303-0.709 0.675v13.183c0 0.372 0.318 0.675 0.709 0.675h6.974c0.391 0 0.709-0.303 0.709-0.675v-13.183c-0-0.372-0.318-0.675-0.709-0.675z"></path>
<path fill="#53535c" style="fill: var(--color1, #53535c)" d="M15.999 0c-8.836 0-15.999 7.164-15.999 16s7.163 16 15.999 16c8.836 0 16-7.164 16-16s-7.164-16-16-16zM22.224 23.896c0 1.222-0.991 2.213-2.213 2.213h-8.023c-1.222 0-2.213-0.991-2.213-2.213v-15.861c0-1.222 0.991-2.213 2.213-2.213h8.023c1.222 0 2.213 0.991 2.213 2.213v15.861z"></path>
</symbol>
</defs>
</svg>
