<svg aria-hidden="true" style="position: absolute; width: 0; height: 0; overflow: hidden;" version="1.1" xmlns="http://www.w3.org/2000/svg" xmlns:xlink="http://www.w3.org/1999/xlink">
<defs>
<symbol id="icon-search" viewBox="0 0 32 32">
<path fill="#fff" style="fill: var(--color1, #fff)" d="M21.856 18.989c3.841-5.424 2.556-12.935-2.868-16.775s-12.935-2.557-16.775 2.869c-3.84 5.424-2.557 12.934 2.869 16.774 3.872 2.741 8.99 2.952 13.074 0.54l8.873 8.82c0.958 1.008 2.552 1.049 3.56 0.091s1.049-2.551 0.092-3.56c-0.030-0.032-0.060-0.062-0.092-0.092l-8.732-8.667zM12.027 19.811c-4.286 0.001-7.761-3.471-7.764-7.758-0.001-4.286 3.471-7.761 7.759-7.763 4.281-0.002 7.754 3.465 7.762 7.746 0.007 4.287-3.463 7.768-7.751 7.775-0.002 0-0.003 0-0.005 0z"></path>
</symbol>
</defs>
</svg>
