<svg width="20" height="20" viewBox="0 0 20 20" fill="none" xmlns="http://www.w3.org/2000/svg">
<path d="M13.6602 11.868C16.061 8.47786 15.2581 3.78355 11.868 1.38335C8.47786 -1.01686 3.78355 -0.214493 1.38335 3.17619C-1.01686 6.5663 -0.214493 11.26 3.17619 13.6602C5.59589 15.3734 8.79502 15.5053 11.3472 13.998L16.8926 19.5102C17.4914 20.1405 18.4876 20.1657 19.1179 19.567C19.7482 18.9688 19.7734 17.9726 19.1753 17.3423C19.1563 17.3222 19.138 17.3038 19.1179 17.2849L13.6602 11.868ZM7.5172 12.3818C4.83827 12.3824 2.66633 10.2122 2.66461 7.53326C2.66403 4.85433 4.83425 2.68238 7.51376 2.68124C10.1893 2.68009 12.3601 4.84687 12.3652 7.52237C12.3698 10.2019 10.2007 12.3773 7.52065 12.3818C7.5195 12.3818 7.51892 12.3818 7.5172 12.3818Z" fill="#53535C"/>
</svg>
