<!-- Generated by IcoMoon.io -->
<svg version="1.1" xmlns="http://www.w3.org/2000/svg" width="1024" height="1024" viewBox="0 0 1024 1024">
<title></title>
<g id="icomoon-ignore">
</g>
<path fill="#fff" d="M699.392 607.642c122.921-173.575 81.807-413.924-91.766-536.814-173.572-122.891-413.921-81.81-536.812 91.793-122.89 173.574-81.809 413.891 91.794 536.781 123.889 87.716 287.684 94.469 418.358 17.295l283.924 282.225c30.653 32.271 81.664 33.562 113.935 2.908 32.271-30.628 33.562-81.633 2.934-113.905-0.968-1.029-1.91-1.971-2.934-2.939l-279.434-277.345zM384.868 633.948c-137.162 0.031-248.365-111.084-248.453-248.245-0.029-137.161 111.086-248.365 248.277-248.423 136.985-0.059 248.13 110.88 248.396 247.866 0.236 137.192-110.822 248.572-248.044 248.803-0.059 0-0.088 0-0.176 0z"></path>
</svg>
