<!-- Generated by IcoMoon.io -->
<svg version="1.1" xmlns="http://www.w3.org/2000/svg" width="1024" height="1024" viewBox="0 0 1024 1024">
<title></title>
<g id="icomoon-ignore">
</g>
<path fill="#53535c" d="M511.962 811.694c22.091 0 39.997-17.906 39.997-39.997 0-22.088-17.906-39.997-39.997-39.997-22.088 0-39.997 17.91-39.997 39.997 0 22.091 17.91 39.997 39.997 39.997z"></path>
<path fill="#53535c" d="M623.541 232.95h-223.171c-12.51 0-22.688 9.704-22.688 21.61v421.86c0 11.916 10.172 21.61 22.688 21.61h223.171c12.51 0 22.688-9.704 22.688-21.61v-421.86c-0.007-11.916-10.179-21.61-22.688-21.61z"></path>
<path fill="#53535c" d="M511.983 0c-282.757 0-511.983 229.243-511.983 511.99s229.226 512.010 511.983 512.010c282.757 0 512.010-229.25 512.010-512.010s-229.253-511.99-512.010-511.99zM711.178 764.658c0 39.11-31.71 70.823-70.823 70.823h-256.73c-39.11 0-70.823-31.71-70.823-70.823v-507.556c0-39.11 31.71-70.823 70.823-70.823h256.73c39.11 0 70.823 31.71 70.823 70.823v507.556z"></path>
</svg>
