<svg width="30" height="30" viewBox="0 0 30 30" fill="none" xmlns="http://www.w3.org/2000/svg">
<path d="M14.9989 23.7801C15.6461 23.7801 16.1707 23.2555 16.1707 22.6083C16.1707 21.9612 15.6461 21.4365 14.9989 21.4365C14.3518 21.4365 13.8271 21.9612 13.8271 22.6083C13.8271 23.2555 14.3518 23.7801 14.9989 23.7801Z" fill="white"/>
<path d="M18.268 6.82471H11.7298C11.3633 6.82471 11.0651 7.10901 11.0651 7.45781V19.817C11.0651 20.1661 11.3631 20.4501 11.7298 20.4501H18.268C18.6345 20.4501 18.9327 20.1658 18.9327 19.817V7.45781C18.9325 7.10871 18.6345 6.82471 18.268 6.82471Z" fill="white"/>
<path d="M14.9995 0C6.7156 0 0 6.7161 0 14.9997C0 23.2833 6.7156 30 14.9995 30C23.2834 30 29.9998 23.2837 29.9998 14.9997C29.9998 6.7157 23.2834 0 14.9995 0ZM20.8353 22.4021C20.8353 23.5479 19.9063 24.477 18.7604 24.477H11.239C10.0932 24.477 9.1641 23.548 9.1641 22.4021V7.5323C9.1641 6.3865 10.0931 5.4574 11.239 5.4574H18.7604C19.9062 5.4574 20.8353 6.3864 20.8353 7.5323V22.4021Z" fill="white"/>
</svg>
