<svg xmlns="http://www.w3.org/2000/svg" fill="none" viewBox="0 0 80 80"><path fill="#53535C" d="M78.438 53.18h-.048v-9.096c0-.283-.057-.446-.113-.584l-5.664-14.983a1.562 1.562 0 0 0-1.461-1.01h-9.243v-9.793a4.26 4.26 0 0 0-4.254-4.257h-27.53c.502.989.909 2.034 1.21 3.124h26.32c.623 0 1.13.509 1.13 1.133V53.18H14.108V36.125a16.577 16.577 0 0 1-3.125-.815v17.87h-.047c-.863 0-1.562.7-1.562 1.563v9.611c0 .863.699 1.563 1.562 1.563h7.251a8.18 8.18 0 0 0-.174 1.682c0 4.489 3.634 8.14 8.1 8.14 4.466 0 8.1-3.651 8.1-8.14 0-.576-.06-1.14-.175-1.683h23.007a8.18 8.18 0 0 0-.175 1.683c0 4.489 3.634 8.14 8.1 8.14 4.467 0 8.1-3.651 8.1-8.14 0-.576-.06-1.14-.174-1.683h5.54c.863 0 1.563-.699 1.563-1.562v-9.61c0-.864-.7-1.563-1.563-1.563zM61.909 30.633h8.163l4.495 11.89H61.91v-11.89zm0 15.015h13.356v7.533H61.91v-7.533zM26.114 72.614c-2.743 0-4.975-2.25-4.975-5.015 0-2.765 2.232-5.015 4.975-5.015 2.743 0 4.975 2.25 4.975 5.015 0 2.766-2.232 5.015-4.975 5.015zm38.857 0c-2.743 0-4.975-2.25-4.975-5.015 0-2.765 2.232-5.015 4.975-5.015 2.743 0 4.975 2.25 4.975 5.015 0 2.766-2.231 5.015-4.975 5.015zm11.904-9.823H71.504a8.08 8.08 0 0 0-6.532-3.331 8.08 8.08 0 0 0-6.533 3.332H32.646a8.081 8.081 0 0 0-6.532-3.332 8.082 8.082 0 0 0-6.532 3.332H12.5v-6.486h64.375v6.486z"/><path fill="#FF8A9D" d="M16.751 37.895c9.252 0 16.751-7.529 16.751-16.817 0-9.287-7.5-16.817-16.75-16.817C7.5 4.261 0 11.791 0 21.078c0 9.288 7.5 16.817 16.751 16.817z"/><path fill="#53535C" d="M19.665 23.372h-2.914c-.863 0-1.562-.7-1.562-1.562v-4.876a1.562 1.562 0 1 1 3.125 0v3.313h1.351a1.562 1.562 0 1 1 0 3.125z"/></svg>