<svg xmlns="http://www.w3.org/2000/svg" fill="none" viewBox="0 0 80 80"><g clip-path="url(#clip0)"><path fill="#6368E5" d="M1.563 28.561h69.302v9.706H1.563v-9.706z"/><path fill="#53535C" d="M73.49 8.826H14.083c-3.59 0-6.51 2.924-6.51 6.518v1.067H6.51C2.92 16.411 0 19.335 0 22.93v41.726c0 3.594 2.92 6.518 6.51 6.518h59.407c3.59 0 6.51-2.924 6.51-6.518v-1.067h1.063c3.59 0 6.51-2.924 6.51-6.518V15.344c0-3.594-2.92-6.518-6.51-6.518zm-4.188 55.83a3.393 3.393 0 0 1-3.385 3.392H6.51a3.393 3.393 0 0 1-3.385-3.393V22.93a3.393 3.393 0 0 1 3.385-3.394h59.407a3.393 3.393 0 0 1 3.385 3.393v41.726zm7.573-7.586a3.393 3.393 0 0 1-3.385 3.393h-1.063V22.93c0-3.594-2.92-6.518-6.51-6.518h-55.22v-1.067a3.393 3.393 0 0 1 3.386-3.393H73.49a3.393 3.393 0 0 1 3.385 3.393V57.07z"/><path fill="#53535C" d="M26.192 46.632H10.301c-.863 0-1.563.7-1.563 1.562v11.991c0 .863.7 1.563 1.563 1.563h15.891c.863 0 1.563-.7 1.563-1.563v-11.99c0-.864-.7-1.563-1.563-1.563zm-1.562 11.99H11.863v-8.865H24.63v8.866zM55.563 46.058c-4.48 0-8.126 3.648-8.126 8.132s3.646 8.132 8.126 8.132c4.48 0 8.126-3.648 8.126-8.132s-3.645-8.132-8.126-8.132zm0 13.139a5.01 5.01 0 0 1-5-5.007 5.01 5.01 0 0 1 5-5.007c2.758 0 5.001 2.246 5.001 5.007a5.01 5.01 0 0 1-5 5.007z"/></g><defs><clipPath id="clip0"><path fill="#fff" d="M0 0h80v80H0z"/></clipPath></defs></svg>