<svg xmlns="http://www.w3.org/2000/svg" fill="none" viewBox="0 0 80 80"><g clip-path="url(#clip0)"><path fill="#FFC390" d="M40 64.85c13.724 0 24.85-11.126 24.85-24.85 0-13.724-11.126-24.85-24.85-24.85-13.724 0-24.85 11.126-24.85 24.85 0 13.724 11.126 24.85 24.85 24.85z"/><path fill="#53535C" d="M75.565 45.304a1.562 1.562 0 0 0-1.83 1.238C70.629 62.662 56.44 74.36 40 74.36c-16.095 0-30.03-11.211-33.524-26.805l.408.408c.305.305.705.458 1.105.458s.8-.153 1.105-.458c.61-.61.61-1.6 0-2.21L5.88 42.54a1.562 1.562 0 0 0-2.21 0L.458 45.753a1.562 1.562 0 1 0 2.21 2.21l.578-.579C6.733 64.842 22.149 77.485 40 77.485c17.937 0 33.415-12.764 36.803-30.351a1.563 1.563 0 0 0-1.238-1.83zM79.542 32.037c-.61-.61-1.6-.61-2.21 0l-.578.578C73.267 15.158 57.851 2.515 40 2.515c-17.936 0-33.414 12.764-36.803 30.351a1.563 1.563 0 1 0 3.068.592C9.371 17.338 23.56 5.64 40 5.64c16.095 0 30.03 11.211 33.524 26.805l-.408-.408a1.563 1.563 0 0 0-2.21 2.21l3.213 3.213a1.562 1.562 0 0 0 2.21 0l3.213-3.214c.61-.61.61-1.599 0-2.21z"/><path fill="#53535C" d="M41.649 46.888a1.563 1.563 0 0 0 2.03-.874l4.323-10.873a1.563 1.563 0 0 0-2.903-1.154l-4.325 10.871c-.319.802.073 1.71.875 2.03zM50.479 36.127h3.587l-3.816 8.68a1.563 1.563 0 0 0 2.86 1.258l4.78-10.872a1.563 1.563 0 0 0-1.43-2.191h-5.981a1.563 1.563 0 0 0 0 3.125zM30.478 43.021c.281.477.792.768 1.345.768h3.864l-.013 1.633a1.563 1.563 0 0 0 1.549 1.576h.014c.856 0 1.554-.69 1.562-1.549l.013-1.668a1.563 1.563 0 0 0 .021-3.106c.014-2.543.02-5.104-.012-5.487-.084-1.005-.698-1.827-1.564-2.096-.865-.267-1.774.056-2.433.864-.62.759-3.261 5.51-4.369 7.516a1.562 1.562 0 0 0 .023 1.55zm5.24-4.538l-.01 2.181H34.48c.434-.773.856-1.519 1.236-2.181z"/><path fill="#53535C" d="M29.533 47.08a1.563 1.563 0 0 0-.02-3.125h-.02c-.855.01-1.754.019-2.566.022.562-.76 1.284-1.758 2.196-3.06.719-1.028 1.19-2.005 1.397-2.904.052-.2.094-.481.095-.773a4.347 4.347 0 0 0-4.345-4.345 4.352 4.352 0 0 0-4.263 3.504 1.563 1.563 0 0 0 3.067.602 1.22 1.22 0 0 1 2.413.16l-.027.213c-.094.356-.326.934-.898 1.75a122.824 122.824 0 0 1-3.293 4.518c-.706.925-1.095 1.434-.835 2.28.152.497.543.893 1.045 1.06.208.07.375.126 2.51.126.837 0 1.978-.009 3.544-.028z"/></g><defs><clipPath id="clip0"><path fill="#fff" d="M0 0h80v80H0z"/></clipPath></defs></svg>