<svg xmlns="http://www.w3.org/2000/svg" fill="none" viewBox="0 0 80 80"><path fill="#B884F3" d="M34.397 7.177v18.076h16.408V43.92h12.223l9.57 5.748.538-5.748H80V7.177H34.397z"/><path fill="#53535C" d="M50.805 23.69H1.563C.7 23.69 0 24.39 0 25.253v39.676c0 .863.7 1.563 1.563 1.563h7.645l.351 4.881a1.563 1.563 0 0 0 2.465 1.16l8.489-6.041h30.292c.862 0 1.562-.7 1.562-1.563V25.253c0-.863-.7-1.563-1.562-1.563zm-1.563 39.677H20.014c-.325 0-.642.1-.906.289l-6.632 4.72-.256-3.56a1.563 1.563 0 0 0-1.558-1.45H3.125v-36.55h46.117v36.55z"/><path fill="#53535C" d="M21.86 55.534a1.559 1.559 0 0 0 2.045-.836l7.687-18.316a1.563 1.563 0 1 0-2.881-1.21L21.023 53.49c-.334.795.04 1.711.836 2.045zM20.27 44.38c2.734 0 4.959-2.472 4.959-5.51s-2.225-5.51-4.96-5.51c-2.734 0-4.958 2.472-4.958 5.51s2.224 5.51 4.959 5.51zm0-7.894c.994 0 1.834 1.092 1.834 2.384 0 1.293-.84 2.385-1.834 2.385-.994 0-1.834-1.092-1.834-2.385 0-1.292.84-2.384 1.834-2.384zM27.138 51.393c0 3.038 2.225 5.51 4.96 5.51 2.734 0 4.958-2.472 4.958-5.51s-2.224-5.51-4.959-5.51c-2.734 0-4.959 2.472-4.959 5.51zm4.96-2.384c.993 0 1.833 1.092 1.833 2.384 0 1.293-.84 2.385-1.834 2.385-.994 0-1.834-1.092-1.834-2.385 0-1.292.84-2.384 1.834-2.384z"/></svg>