<svg aria-hidden="true" style="position:absolute;width:0;height:0" xmlns="http://www.w3.org/2000/svg" overflow="hidden">
<defs>
<symbol id="icon-close" viewBox="0 0 32 32">
<path d="M0.669 26.529c-0.893 0.893-0.893 2.34 0 3.232s2.34 0.893 3.232 0l11.313-11.313 11.314 11.314c0.893 0.893 2.34 0.893 3.232 0s0.893-2.34 0-3.232l-11.314-11.314 11.314-11.314c0.893-0.893 0.893-2.34 0-3.232s-2.34-0.893-3.232 0l-11.314 11.314-11.313-11.313c-0.893-0.893-2.34-0.893-3.232 0s-0.893 2.34 0 3.232l11.313 11.313-11.313 11.313z"></path>
</symbol>
<symbol id="icon-navarrow" viewBox="0 0 53 32">
<path d="M26.665 32L49.759 0H3.571l23.094 32z"/>
</symbol>
<symbol id="icon-burger" viewBox="0 0 140 32">
<path d="M34.431 16c0 8.837-7.163 16-16 16s-16-7.163-16-16 7.163-16 16-16 16 7.163 16 16zM138.431 16c0 8.837-7.163 16-16 16s-16-7.163-16-16 7.163-16 16-16 16 7.163 16 16zM86.431 16c0 8.837-7.163 16-16 16s-16-7.163-16-16 7.163-16 16-16 16 7.163 16 16z"/>
</symbol><symbol id="icon-search" viewBox="0 0 32 32"><path d="M21.856 18.989c3.841-5.424 2.556-12.935-2.868-16.775S6.053-.343 2.213 5.083c-3.84 5.424-2.557 12.934 2.869 16.774a12.033 12.033 0 0013.074.54l8.873 8.82a2.518 2.518 0 103.56-3.561l-8.732-8.667zm-9.829.822a7.76 7.76 0 11-.019-15.52 7.76 7.76 0 01.025 15.52h-.005z"/></symbol><symbol id="icon-cart" viewBox="0 0 33 32"><path d="M16.648 32c8.837 0 16-7.163 16-16s-7.163-16-16-16-16 7.163-16 16 7.163 16 16 16zm-.737-9.484a2.018 2.018 0 11-4.036-.002 2.018 2.018 0 014.036.003zm3.87-2.018a2.017 2.017 0 110 4.032 2.017 2.017 0 010-4.031zm-7.082-2.058h10.52a.618.618 0 010 1.236H12.184a.618.618 0 01-.618-.515L9.796 8.703H7.943a.618.618 0 010-1.236h2.367a.618.618 0 01.618.515l.494 2.841h11.776a.618.618 0 01.576.844l-2.059 5.188a.616.616 0 01-.576.391h-8.647l.206 1.194z"/></symbol><symbol id="icon-smartphone" viewBox="0 0 32 32"><path d="M15.999 25.365a1.25 1.25 0 100-2.5 1.25 1.25 0 000 2.5zM19.486 7.28h-6.974c-.391 0-.709.303-.709.675v13.183c0 .372.318.675.709.675h6.974c.391 0 .709-.303.709-.675V7.955c0-.372-.318-.675-.709-.675z"/><path d="M15.999 0C7.163 0 0 7.164 0 16s7.163 16 15.999 16 16-7.164 16-16-7.164-16-16-16zm6.225 23.896a2.213 2.213 0 01-2.213 2.213h-8.023a2.213 2.213 0 01-2.213-2.213V8.035c0-1.222.991-2.213 2.213-2.213h8.023c1.222 0 2.213.991 2.213 2.213v15.861z"/></symbol><symbol id="icon-profile" viewBox="0 0 32 32"><path d="M16 0C7.164 0 0 7.164 0 16s7.163 16 16 16c8.836 0 16-7.164 16-16S24.836 0 16 0zm.048 23.548H9.116c0-4.998 4.39-4.997 5.364-6.304l.111-.596c-1.369-.694-2.335-2.366-2.335-4.321 0-2.576 1.676-4.665 3.743-4.665s3.743 2.089 3.743 4.665c0 1.939-.949 3.601-2.299 4.305l.127.677c1.069 1.244 5.312 1.325 5.312 6.239h-6.834z"/></symbol><symbol id="icon-likes" viewBox="0 0 32 32"><path d="M16 32c8.837 0 16-7.163 16-16S24.837 0 16 0 0 7.163 0 16s7.163 16 16 16zm3.53-22.4c1.236 0 2.372.495 3.2 1.393.819.888 1.269 2.101 1.269 3.415 0 1.353-.504 2.592-1.587 3.898-.969 1.169-2.36 2.355-3.972 3.728l-.013.012c-.547.467-1.167.994-1.809 1.556a.937.937 0 01-1.237 0c-.647-.566-1.271-1.097-1.821-1.566l-.001-.001c-1.612-1.374-3.004-2.56-3.972-3.729C8.504 17 8 15.761 8 14.408c0-1.315.451-2.528 1.269-3.415a4.303 4.303 0 013.2-1.393c.924 0 1.769.292 2.514.868.376.291.716.646 1.016 1.061a5.14 5.14 0 011.016-1.061 4.024 4.024 0 012.514-.868z"/></symbol></defs></svg>