<svg viewBox="0 0 14 14" fill="none" xmlns="http://www.w3.org/2000/svg"><path fill-rule="evenodd" clip-rule="evenodd" d="M0.292886 11.6066C-0.0976387 11.9971 -0.0976387 12.6303 0.292886 13.0208C0.68341 13.4113 1.31657 13.4113 1.7071 13.0208L6.65673 8.07118L11.6066 13.021C11.9971 13.4116 12.6303 13.4116 13.0208 13.021C13.4113 12.6305 13.4113 11.9974 13.0208 11.6068L8.07094 6.65697L13.0208 1.70711C13.4113 1.31658 13.4113 0.683417 13.0208 0.292892C12.6303 -0.097632 11.9971 -0.0976316 11.6066 0.292892L6.65673 5.24276L1.7071 0.293124C1.31657 -0.0973998 0.68341 -0.0973998 0.292886 0.293124C-0.0976387 0.683649 -0.0976387 1.31681 0.292886 1.70734L5.24252 6.65697L0.292886 11.6066Z"/></svg>